<?xml version="1.0" encoding="UTF-8"?>
<!DOCTYPE svg PUBLIC "-//W3C//DTD SVG 1.1//EN" "http://www.w3.org/Graphics/SVG/1.1/DTD/svg11.dtd">
<svg xmlns="http://www.w3.org/2000/svg" version="1.1" width="220px" height="219px" style="shape-rendering:geometricPrecision; text-rendering:geometricPrecision; image-rendering:optimizeQuality; fill-rule:evenodd; clip-rule:evenodd" xmlns:xlink="http://www.w3.org/1999/xlink">
<g><path style="opacity:0.935" fill="#818281" d="M 23.5,-0.5 C 80.8333,-0.5 138.167,-0.5 195.5,-0.5C 207.397,3.0629 215.397,10.7296 219.5,22.5C 219.5,80.1667 219.5,137.833 219.5,195.5C 215.397,207.27 207.397,214.937 195.5,218.5C 138.167,218.5 80.8333,218.5 23.5,218.5C 11.6031,214.937 3.60307,207.27 -0.5,195.5C -0.5,137.833 -0.5,80.1667 -0.5,22.5C 3.60307,10.7296 11.6031,3.0629 23.5,-0.5 Z M 26.5,13.5 C 81.8343,13.3333 137.168,13.5 192.5,14C 198.667,16.1667 202.833,20.3333 205,26.5C 205.667,81.5 205.667,136.5 205,191.5C 202.833,197.667 198.667,201.833 192.5,204C 137.167,204.667 81.8333,204.667 26.5,204C 20.3333,201.833 16.1667,197.667 14,191.5C 13.3333,136.5 13.3333,81.5 14,26.5C 16.3531,20.3154 20.5198,15.982 26.5,13.5 Z"/></g>
<g><path style="opacity:0.97" fill="#818281" d="M 33.5,30.5 C 55.5,30.5 77.5,30.5 99.5,30.5C 99.5,53.1667 99.5,75.8333 99.5,98.5C 76.5,98.5 53.5,98.5 30.5,98.5C 30.3334,76.8308 30.5,55.1641 31,33.5C 31.6979,32.3094 32.5313,31.3094 33.5,30.5 Z"/></g>
<g><path style="opacity:0.97" fill="#50b184" d="M 119.5,30.5 C 141.879,30.1775 164.212,30.5108 186.5,31.5C 187.192,32.0253 187.692,32.6919 188,33.5C 188.5,55.1641 188.667,76.8308 188.5,98.5C 165.5,98.5 142.5,98.5 119.5,98.5C 119.5,75.8333 119.5,53.1667 119.5,30.5 Z"/></g>
<g><path style="opacity:0.97" fill="#818281" d="M 30.5,119.5 C 53.5,119.5 76.5,119.5 99.5,119.5C 99.5,142.167 99.5,164.833 99.5,187.5C 77.1212,187.823 54.7879,187.489 32.5,186.5C 31.8076,185.975 31.3076,185.308 31,184.5C 30.5,162.836 30.3334,141.169 30.5,119.5 Z"/></g>
<g><path style="opacity:0.97" fill="#818281" d="M 119.5,119.5 C 142.5,119.5 165.5,119.5 188.5,119.5C 188.667,141.169 188.5,162.836 188,184.5C 187.692,185.308 187.192,185.975 186.5,186.5C 164.212,187.489 141.879,187.823 119.5,187.5C 119.5,164.833 119.5,142.167 119.5,119.5 Z"/></g>
</svg>
